HIERARCHY
ROOT joint_Root
{
	OFFSET 0.0 0.0 0.0
	CHANNELS 6 Xposition Yposition Zposition Zrotation Xrotation Yrotation 
	JOINT Hips
	{
		OFFSET 4.5925 91.4895 -427.239
		CHANNELS 6 Xposition Yposition Zposition Zrotation Xrotation Yrotation 
		JOINT Spine
		{
			OFFSET 15.7357 0.0 0.0
			CHANNELS 6 Xposition Yposition Zposition Zrotation Xrotation Yrotation 
			JOINT Chest
			{
				OFFSET 8.98455 -0.406207 0.0
				CHANNELS 6 Xposition Yposition Zposition Zrotation Xrotation Yrotation 
				JOINT Neck
				{
					OFFSET 16.3773 0.0 0.0
					CHANNELS 6 Xposition Yposition Zposition Zrotation Xrotation Yrotation 
					JOINT Head
					{
						OFFSET 6.45672 0.0 0.0
						CHANNELS 6 Xposition Yposition Zposition Zrotation Xrotation Yrotation 
						End Site
						{
							OFFSET 0.0 0.0 0.0
						}
					}
				}
				JOINT Shoulder_L
				{
					OFFSET 12.9942 -0.242716 4.98039
					CHANNELS 6 Xposition Yposition Zposition Zrotation Xrotation Yrotation 
					JOINT UpperArm_L
					{
						OFFSET 5.34809 0.0 0.0
						CHANNELS 6 Xposition Yposition Zposition Zrotation Xrotation Yrotation 
						JOINT LowerArm_L
						{
							OFFSET 24.3286 1.87007e-05 0.0
							CHANNELS 6 Xposition Yposition Zposition Zrotation Xrotation Yrotation 
							JOINT Hand_L
							{
								OFFSET 22.2916 0.0 0.0
								CHANNELS 6 Xposition Yposition Zposition Zrotation Xrotation Yrotation 
								End Site
								{
									OFFSET 0.0 0.0 0.0
								}
							}
						}
					}
				}
				JOINT Shoulder_R
				{
					OFFSET 12.9945 -0.242716 -4.98039
					CHANNELS 6 Xposition Yposition Zposition Zrotation Xrotation Yrotation 
					JOINT UpperArm_R
					{
						OFFSET -5.34813 0.0 0.0
						CHANNELS 6 Xposition Yposition Zposition Zrotation Xrotation Yrotation 
						JOINT LowerArm_R
						{
							OFFSET -24.3289 0.000322201 0.0
							CHANNELS 6 Xposition Yposition Zposition Zrotation Xrotation Yrotation 
							JOINT Hand_R
							{
								OFFSET -22.2915 -0.000108084 0.0
								CHANNELS 6 Xposition Yposition Zposition Zrotation Xrotation Yrotation 
								End Site
								{
									OFFSET 0.0 0.0 0.0
								}
							}
						}
					}
				}
			}
		}
		JOINT UpperLeg_L
		{
			OFFSET -2.19248 -6.46944 0.0
			CHANNELS 6 Xposition Yposition Zposition Zrotation Xrotation Yrotation 
			JOINT LowerLeg_L
			{
				OFFSET 39.0811 0.0 -1.23785e-05
				CHANNELS 6 Xposition Yposition Zposition Zrotation Xrotation Yrotation 
				JOINT Foot_L
				{
					OFFSET 40.9854 0.0 -1.26872e-05
					CHANNELS 6 Xposition Yposition Zposition Zrotation Xrotation Yrotation 
					JOINT Toes_L
					{
						OFFSET 11.7543 0.0 0.0
						CHANNELS 6 Xposition Yposition Zposition Zrotation Xrotation Yrotation 
						End Site
						{
							OFFSET 0.0 0.0 0.0
						}
					}
				}
			}
		}
		JOINT UpperLeg_R
		{
			OFFSET -2.19251 6.46944 0.0
			CHANNELS 6 Xposition Yposition Zposition Zrotation Xrotation Yrotation 
			JOINT LowerLeg_R
			{
				OFFSET -39.0811 -0.00228153 -0.0401928
				CHANNELS 6 Xposition Yposition Zposition Zrotation Xrotation Yrotation 
				JOINT Foot_R
				{
					OFFSET -40.9854 0.0 0.0
					CHANNELS 6 Xposition Yposition Zposition Zrotation Xrotation Yrotation 
					JOINT Toes_R
					{
						OFFSET -11.7543 0.0 0.0
						CHANNELS 6 Xposition Yposition Zposition Zrotation Xrotation Yrotation 
						End Site
						{
							OFFSET 0.0 0.0 0.0
						}
					}
				}
			}
		}
	}
}
MOTION
Frames:	4
Frame Time:	0.0333333
0.000000 0.000000 0.000000 0.000000 0.000000 -0.000000 -1.933360 85.276900 -2.819040 88.237100 -3.080170 7.421690 15.735700 0.000005 -0.000001 91.636400 81.770800 -90.381900 8.984550 -0.406207 -0.000000 8.681960 0.477706 2.470440 16.377300 -0.000001 -0.000001 1.792940 -4.583820 2.279720 6.456720 -0.000001 -0.000000 -0.736656 -5.890230 5.797790 12.994200 -0.242716 4.980390 -91.038100 3.244690 -72.245800 5.348090 -0.000007 -0.000001 -66.012700 4.574080 -16.767700 24.328600 0.000019 0.000005 5.406280 15.373100 -19.649100 22.291600 -0.000001 0.000005 5.865150 5.269260 0.926982 12.994500 -0.242716 -4.980390 88.074700 9.734620 -78.755400 -5.348130 -0.000001 -0.000004 -60.943900 24.270400 -9.433880 -24.328900 0.000322 -0.000009 -4.032520 -7.358710 -28.822300 -22.291500 -0.000108 -0.000004 20.926300 5.518490 -7.303610 -2.192480 -6.469440 -0.000000 -171.568000 -15.675200 -15.216100 39.081100 -0.000007 -0.000012 -0.419757 0.309803 53.571700 40.985400 -0.000006 -0.000013 1.608840 9.355430 -80.252300 11.754300 -0.000000 0.000003 -0.000421 -0.003453 -16.704600 -2.192510 6.469440 -0.000001 178.531000 16.685400 165.279000 -39.081100 -0.002282 -0.040193 0.066715 -0.047568 53.154200 -40.985400 0.000008 0.000006 8.236800 7.900910 -81.243900 -11.754300 -0.000006 -0.000006 -0.675158 -0.833162 -16.627000
0.000000 0.000000 0.000000 0.000000 0.000000 -0.000000 -1.669770 86.227800 -1.735380 88.899200 -3.417340 8.740880 15.735700 0.000005 -0.000001 93.148700 81.869400 -90.871100 8.984550 -0.406207 -0.000000 8.457550 0.902790 4.484320 16.377300 -0.000001 -0.000001 3.716820 -5.149590 2.452110 6.456720 -0.000001 -0.000000 -0.410552 -6.659930 4.231390 12.994200 -0.242716 4.980390 -90.613200 1.840940 -71.572200 5.348090 -0.000007 -0.000001 -58.962100 -4.272710 -21.849800 24.328600 0.000019 0.000005 4.277330 15.440700 -15.688100 22.291600 -0.000001 0.000005 7.313180 5.224490 2.082730 12.994500 -0.242716 -4.980390 87.918000 9.624960 -77.733300 -5.348130 -0.000001 -0.000004 -60.996500 21.712100 -7.602080 -24.328900 0.000322 -0.000009 -4.658580 -9.513980 -26.245100 -22.291500 -0.000108 -0.000004 22.969400 5.498950 -6.495180 -2.192480 -6.469440 -0.000000 -172.193000 -14.699100 -11.163400 39.081100 -0.000007 -0.000012 -0.410856 0.345381 49.949300 40.985400 -0.000006 -0.000013 1.026840 8.239650 -79.377400 11.754300 -0.000000 0.000003 -0.000384 -0.003195 -16.695500 -2.192510 6.469440 -0.000001 176.936000 16.641600 169.036000 -39.081100 -0.002282 -0.040193 0.057100 -0.045111 50.048000 -40.985400 0.000008 0.000006 8.049440 8.620490 -80.396900 -11.754300 -0.000006 -0.000006 -0.666702 -0.821616 -16.753800
0.000000 0.000000 0.000000 0.000000 0.000000 -0.000000 -1.382940 87.663500 -0.631185 89.599900 -3.479660 9.500360 15.735700 0.000005 -0.000001 93.923700 82.340000 -90.636500 8.984550 -0.406207 -0.000000 7.497610 1.036810 6.499630 16.377300 -0.000001 -0.000001 5.656820 -5.769340 2.748010 6.456720 -0.000001 -0.000000 -0.041041 -7.553300 2.587530 12.994200 -0.242716 4.980390 -90.118100 0.351728 -71.438200 5.348090 -0.000007 -0.000001 -50.555300 -17.518500 -27.032000 24.328600 0.000019 0.000005 2.855060 11.548600 -13.985400 22.291600 -0.000001 0.000005 9.189150 5.172880 3.388580 12.994500 -0.242716 -4.980390 87.810000 9.195540 -76.541600 -5.348130 -0.000001 -0.000004 -60.797200 19.535100 -5.358930 -24.328900 0.000322 -0.000009 -4.849030 -11.229300 -23.534400 -22.291500 -0.000108 -0.000004 22.305600 5.488290 -6.065590 -2.192480 -6.469440 -0.000000 -172.951000 -14.321500 -6.686660 39.081100 -0.000007 -0.000012 -0.379693 0.390412 44.203400 40.985400 -0.000006 -0.000013 0.655430 7.744000 -77.391800 11.754300 -0.000000 0.000003 -0.000313 -0.002696 -16.677800 -2.192510 6.469440 -0.000001 175.256000 17.308200 173.207000 -39.081100 -0.002282 -0.040193 0.045269 -0.042000 45.002800 -40.985400 0.000008 0.000006 7.782490 9.983820 -78.479500 -11.754300 -0.000006 -0.000006 -0.697075 -0.857855 -16.971400
0.000000 0.000000 0.000000 0.000000 0.000000 -0.000000 -1.079770 88.948700 0.163786 89.916100 -3.404870 8.939690 15.735700 0.000005 -0.000001 94.642500 83.273100 -90.408800 8.984550 -0.406207 -0.000000 5.621170 1.007580 8.408340 16.377300 -0.000001 -0.000001 7.078620 -6.357680 3.339010 6.456720 -0.000001 -0.000000 0.361317 -8.484770 1.309600 12.994200 -0.242716 4.980390 -89.466100 -1.659080 -72.146900 5.348090 -0.000007 -0.000001 -39.547600 -30.422700 -31.384800 24.328600 0.000019 0.000005 0.976546 3.981830 -13.808200 22.291600 -0.000001 0.000005 9.941280 5.176300 3.309590 12.994500 -0.242716 -4.980390 87.868800 8.472500 -75.824200 -5.348130 -0.000001 -0.000004 -60.404900 16.553400 -2.301840 -24.328900 0.000322 -0.000009 -3.543120 -8.936530 -21.724200 -22.291500 -0.000108 -0.000004 19.839900 5.475050 -5.555140 -2.192480 -6.469440 -0.000000 -173.343000 -15.295300 -3.852580 39.081100 -0.000007 -0.000012 -0.307323 0.384608 38.627400 40.985400 -0.000006 -0.000013 0.806146 8.620440 -75.211100 11.754300 -0.000000 0.000003 -0.000217 -0.001981 -16.652100 -2.192510 6.469440 -0.000001 174.338000 18.517700 175.823000 -39.081100 -0.002282 -0.040193 0.034749 -0.037667 39.878200 -40.985400 0.000008 0.000006 7.528500 11.604000 -76.360200 -11.754300 -0.000006 -0.000006 -0.673160 -0.826935 -17.138100
